<svg xmlns="http://www.w3.org/2000/svg" viewBox="2291 139.031 20 20">
  <defs>
    <style>
      .cls-1 {
        fill: #9f9f9f;
      }
    </style>
  </defs>
  <path id="Path_6" data-name="Path 6" class="cls-1" d="M19.886,7.48a.412.412,0,0,0-.558,0L8.218,18.027a4.487,4.487,0,0,1-3.094,1.209,4.58,4.58,0,0,1-3.094-1.209A4.075,4.075,0,0,1,.761,15.076a4.158,4.158,0,0,1,1.268-2.951l11.11-10.5a3.11,3.11,0,0,1,4.312.145A2.776,2.776,0,0,1,17.6,5.884L7.2,15.8a1.621,1.621,0,0,1-2.131,0,1.442,1.442,0,0,1,0-2.032l7.051-6.725a.367.367,0,0,0,0-.532.412.412,0,0,0-.558,0L4.515,13.237a2.092,2.092,0,0,0,0,3.1,2.344,2.344,0,0,0,3.247,0l10.4-9.917a3.47,3.47,0,0,0-.152-5.176,3.886,3.886,0,0,0-5.428-.145L1.522,11.641a4.747,4.747,0,0,0,0,6.966,5.322,5.322,0,0,0,7.305,0L19.886,8.061a.425.425,0,0,0,0-.581Zm0,0" transform="translate(2291 138.973)"/>
</svg>
