<svg xmlns="http://www.w3.org/2000/svg" viewBox="2791 2163 22.759 22"><defs><style>.a{fill:#fff;}</style></defs><path class="a" d="M22.745.677a.548.548,0,0,0,0-.087.359.359,0,0,0-.06-.151c0-.009-.009-.023-.014-.032s-.014-.014-.023-.023a.49.49,0,0,0-.07-.069.524.524,0,0,1-.06-.046C22.5.264,22.5.255,22.49.25a.39.39,0,0,0-.056-.018A.459.459,0,0,0,22.36.209.574.574,0,0,0,22.272.2H22.2a.6.6,0,0,0-.1.023c-.014,0-.032,0-.051.009L.284,9.525a.485.485,0,0,0-.255.646.5.5,0,0,0,.241.247L8.4,14.2V21.71a.5.5,0,0,0,.918.257l3.435-5.522,5.307,2.763A.5.5,0,0,0,18.727,19c.019-.041.032-.082.046-.124L22.736.777V.75C22.741.722,22.741.7,22.745.677ZM20.066,2.152,8.794,13.3l-7.1-3.3ZM9.387,19.978V14.694l2.489,1.3Zm8.556-1.938-4.672-2.429h0l-.839-.513-.032.06L9.725,13.764,21.406,2.2Z" transform="translate(2791.013 2162.8)"/></svg>