<svg xmlns="http://www.w3.org/2000/svg" viewBox="2030 240 30 29"><g transform="translate(2030 240)"><path d="M23.754,107.746a2.06,2.06,0,0,0-1.641-1.046H20a.632.632,0,0,0,0,1.265h2.115a.875.875,0,0,1,.574.449l5.871,9.639H20.766a1.283,1.283,0,0,0-1.254,1.028l-.34,1.708c-.07.361-.451.414-.674.414h-7c-.135,0-.586-.03-.668-.455l-.34-1.6a1.332,1.332,0,0,0-1.248-1.105H1.436l5.871-9.633a.871.871,0,0,1,.58-.449H10a.632.632,0,0,0,0-1.265H7.887a2.056,2.056,0,0,0-1.641,1.046L0,117.994v9.444a1.949,1.949,0,0,0,1.934,1.956H28.066A1.949,1.949,0,0,0,30,127.438v-9.444Zm5,19.692a.688.688,0,0,1-.68.691H1.934a.692.692,0,0,1-.68-.691v-8.132l7.951-.006a.168.168,0,0,1,.064.1l.34,1.6a1.841,1.841,0,0,0,1.9,1.46h7a1.808,1.808,0,0,0,1.893-1.43l.369-1.726h7.986v8.138Z" transform="translate(0 -100.394)"/><path d="M205.823,14.757l2.941-2.967a.632.632,0,0,0-.018-.892.619.619,0,0,0-.867,0l-1.436,1.448V.632A.622.622,0,0,0,205.823,0a.63.63,0,0,0-.627.632V12.352L203.761,10.9a.619.619,0,0,0-.885.018.632.632,0,0,0,0,.875Z" transform="translate(-190.823)"/></g></svg>