<?xml version="1.0" encoding="utf-8"?>
<!-- Generator: Adobe Illustrator 21.1.0, SVG Export Plug-In . SVG Version: 6.00 Build 0)  -->
<svg version="1.1" id="Layer_1" xmlns="http://www.w3.org/2000/svg" xmlns:xlink="http://www.w3.org/1999/xlink" x="0px" y="0px"
	 viewBox="0 0 154 34" style="enable-background:new 0 0 154 34;" xml:space="preserve">
<style type="text/css">
	.st0{enable-background:new    ;}
	.st1{fill:#252525;}
</style>
<g class="st0">
	<path class="st1" d="M47.9,26.8h-3.3l-0.3-14.3h-0.1l-7.7,14.3h-0.9l-3.4-14.5h-0.1l-4.7,14.5h-3.3L30.6,7H34l3.1,13L44,7h3.5
		L47.9,26.8z"/>
	<path class="st1" d="M57.6,13.4c1,0,1.9,0.2,2.6,0.7c0.8,0.5,1.4,1.1,1.8,1.9c0.4,0.8,0.6,1.8,0.6,2.8c0,0.5,0,1-0.1,1.5h-8.3
		c-0.1,0.3-0.1,0.6-0.1,0.9c0,0.7,0.1,1.3,0.4,1.8c0.3,0.5,0.7,0.9,1.2,1.2s1.1,0.4,1.7,0.4c0.6,0,1.3-0.1,2-0.4s1.6-0.7,2.5-1.2
		l-0.5,2.8c-1.5,0.8-3,1.2-4.4,1.2c-1.2,0-2.2-0.3-3.1-0.8c-0.9-0.5-1.6-1.3-2.1-2.2c-0.5-1-0.7-2.1-0.7-3.3c0-1.3,0.3-2.6,0.9-3.7
		c0.6-1.1,1.4-2,2.4-2.7C55.3,13.7,56.4,13.4,57.6,13.4z M59.6,18.4v-0.2c0-0.8-0.2-1.4-0.6-1.8c-0.4-0.4-0.9-0.7-1.6-0.7
		c-1.4,0-2.3,0.9-2.9,2.7H59.6z"/>
	<path class="st1" d="M70.4,7l-2.8,19.8h-3.1L67.3,7H70.4z"/>
	<path class="st1" d="M83.7,19.3c0,1.4-0.3,2.8-0.9,4c-0.6,1.2-1.4,2.1-2.4,2.8c-1,0.7-2.2,1-3.4,1c-1.1,0-2.1-0.3-3-0.8
		s-1.5-1.2-2-2.2s-0.7-2-0.7-3.1c0-1.4,0.3-2.7,0.9-3.9c0.6-1.2,1.4-2.1,2.5-2.8c1.1-0.7,2.2-1,3.4-1c1.1,0,2.1,0.2,2.9,0.7
		s1.5,1.2,2,2.1C83.4,17.1,83.7,18.1,83.7,19.3z M80.5,19.1c0-1-0.2-1.7-0.7-2.4c-0.4-0.6-1-0.9-1.8-0.9c-0.7,0-1.3,0.2-1.8,0.7
		c-0.5,0.5-1,1.2-1.3,2c-0.3,0.9-0.5,1.7-0.5,2.6c0,0.6,0.1,1.2,0.3,1.7c0.2,0.5,0.5,0.9,0.9,1.1c0.4,0.3,0.8,0.4,1.2,0.4
		c0.7,0,1.3-0.2,1.8-0.7c0.6-0.5,1-1.1,1.3-1.9C80.3,21,80.5,20.1,80.5,19.1z"/>
	<path class="st1" d="M96.7,26.8h-3.1l1-7.3c0.1-0.5,0.1-0.9,0.1-1.2c0-0.2,0-0.5,0-0.8c0-0.5-0.1-0.9-0.4-1.2
		c-0.2-0.3-0.6-0.5-1-0.5c-0.4,0-0.9,0.2-1.6,0.6c-0.6,0.4-1.3,1-2.1,1.9l-1.2,8.4h-3.1l1.8-13.1h3.1l-0.3,2.1
		c0.8-0.8,1.5-1.3,2.2-1.7s1.5-0.6,2.2-0.6c0.7,0,1.3,0.2,1.8,0.5c0.5,0.3,0.9,0.8,1.1,1.3c0.3,0.6,0.4,1.2,0.4,1.9
		c0,0.2,0,0.3,0,0.5c0,0.2,0,0.3,0,0.5c0,0.2,0,0.4-0.1,0.6c0,0.2-0.1,0.5-0.1,0.8L96.7,26.8z"/>
	<path class="st1" d="M123.2,26.8h-3.3l-0.3-14.3h-0.1l-7.7,14.3H111l-3.4-14.5h-0.1l-4.7,14.5h-3.3L106,7h3.3l3.1,13l6.9-13h3.5
		L123.2,26.8z"/>
	<path class="st1" d="M137.3,26.8h-3.1l0.2-1.4l0,0l0,0c-1.2,1.1-2.4,1.6-3.6,1.6c-0.8,0-1.6-0.2-2.3-0.7s-1.2-1.1-1.6-1.9
		c-0.4-0.8-0.6-1.7-0.6-2.7c0-1.7,0.4-3.1,1.1-4.4c0.8-1.3,1.8-2.3,3.2-2.9c1.4-0.7,3-1,4.8-1c1.2,0,2.5,0.1,3.7,0.4L137.3,26.8z
		 M135.7,16c-0.3,0-0.6,0-0.8,0c-0.8,0-1.5,0.1-2.1,0.4s-1.2,0.6-1.7,1.1s-0.9,1.1-1.1,1.8s-0.4,1.5-0.4,2.3c0,0.9,0.2,1.7,0.6,2.3
		c0.4,0.6,1,0.8,1.6,0.8c0.4,0,0.9-0.1,1.5-0.4c0.5-0.3,1-0.7,1.5-1.2L135.7,16z"/>
	<path class="st1" d="M146,13.7l-1.9,13.1h-3.1l1.8-13.1H146z M146.6,9.8c0,0.3-0.1,0.6-0.2,0.8s-0.4,0.5-0.6,0.6
		c-0.3,0.2-0.6,0.2-0.9,0.2c-0.3,0-0.6-0.1-0.8-0.2c-0.3-0.2-0.5-0.4-0.6-0.6c-0.1-0.3-0.2-0.5-0.2-0.8c0-0.3,0.1-0.6,0.2-0.8
		c0.1-0.3,0.3-0.5,0.6-0.6c0.3-0.2,0.5-0.2,0.9-0.2c0.3,0,0.6,0.1,0.9,0.2c0.3,0.2,0.5,0.4,0.6,0.6C146.6,9.2,146.6,9.5,146.6,9.8z"
		/>
	<path class="st1" d="M153.6,7l-2.8,19.8h-3.1L150.5,7H153.6z"/>
</g>
<path class="st1" d="M9,15h13c1.1,0,2,0.9,2,2l0,0c0,1.1-0.9,2-2,2H9c-1.1,0-2-0.9-2-2l0,0C7,15.9,7.9,15,9,15z"/>
<path class="st1" d="M2,7h15c1.1,0,2,0.9,2,2l0,0c0,1.1-0.9,2-2,2H2c-1.1,0-2-0.9-2-2l0,0C0,7.9,0.9,7,2,7z"/>
<path class="st1" d="M24,7h8c1.1,0,2,0.9,2,2l0,0c0,1.1-0.9,2-2,2h-8c-1.1,0-2-0.9-2-2l0,0C22,7.9,22.9,7,24,7z"/>
</svg>
