<svg xmlns="http://www.w3.org/2000/svg" viewBox="2030 315 30 29">
  <path id="Path_5" data-name="Path 5" d="M29.987.828A.723.723,0,0,0,29.98.713a.473.473,0,0,0-.079-.2c-.006-.012-.012-.03-.018-.042s-.018-.018-.031-.03A.646.646,0,0,0,29.76.351a.691.691,0,0,1-.079-.06c-.012-.006-.018-.018-.031-.024a.513.513,0,0,0-.073-.024.606.606,0,0,0-.1-.03A.757.757,0,0,0,29.363.2h-.1a.8.8,0,0,0-.128.03c-.018.006-.043.006-.067.012L.378,12.492a.64.64,0,0,0-.336.852.664.664,0,0,0,.318.326l10.717,4.983v9.9a.655.655,0,0,0,1.21.338l4.527-7.279,7,3.642a.654.654,0,0,0,.88-.272c.024-.054.043-.109.061-.163L29.974.961V.925C29.98.889,29.98.858,29.987.828ZM26.455,2.773,11.6,17.463l-9.36-4.355ZM12.378,26.27V19.306l3.281,1.709Zm11.279-2.555-6.159-3.2h0l-1.106-.677-.043.079L12.824,18.08l15.4-15.24Z" transform="translate(2030.013 314.8)"/>
</svg>
