<svg xmlns="http://www.w3.org/2000/svg" viewBox="2073.239 142.104 22 22">
  <defs>
    <style>
      .cls-1 {
        fill: #fff;
      }
    </style>
  </defs>
  <g id="Write-icon" transform="translate(2073.239 142.288)">
    <path id="Path_1" data-name="Path 1" class="cls-1" d="M85.141,6.339,83.009,8.472c-.785.786-1.576,1.572-2.356,2.369a1.43,1.43,0,0,0-.376.685q-.421,1.945-.83,3.9l-.151.719a1.024,1.024,0,0,0,.258.938.991.991,0,0,0,.707.286,1.6,1.6,0,0,0,.23-.022l.791-.168c1.256-.264,2.518-.533,3.775-.8a1.454,1.454,0,0,0,.752-.4Q91.1,10.667,96.386,5.384a1.486,1.486,0,0,0,.437-.954.687.687,0,0,0-.011-.185c-.022-.09-.039-.185-.062-.275a3.737,3.737,0,0,0-.213-.741A5.862,5.862,0,0,0,93.285.034a3.4,3.4,0,0,0-.9-.2l-.079-.011a1.246,1.246,0,0,0-1.088.41q-3.029,3.057-6.08,6.1ZM92.163.921h.022l.079.011a2.548,2.548,0,0,1,.617.124,4.771,4.771,0,0,1,2.659,2.616,3.282,3.282,0,0,1,.146.522c.011.073.034.146.045.213a.336.336,0,0,1-.112.191q-5.3,5.288-10.584,10.588a.352.352,0,0,1-.191.1c-1.262.264-2.518.528-3.78.8l-.662.14.123-.589c.275-1.291.55-2.594.824-3.885a.441.441,0,0,1,.084-.146q1.169-1.187,2.344-2.358l2.131-2.133q3.054-3.057,6.1-6.108c.084-.073.129-.084.157-.084Zm0,0" transform="translate(-74.826)"/>
    <g id="Group_1" data-name="Group 1">
      <path id="Path_2" data-name="Path 2" class="cls-1" d="M1.744,68.7H9.58a.55.55,0,0,0,0-1.1H1.744A1.74,1.74,0,0,0,0,69.345v14.7a1.747,1.747,0,0,0,1.744,1.746h14.69a1.747,1.747,0,0,0,1.744-1.746V76.526a.55.55,0,1,0-1.1,0v7.523a.649.649,0,0,1-.645.646H1.744a.649.649,0,0,1-.645-.646v-14.7a.649.649,0,0,1,.645-.646Zm0,0" transform="translate(0 -63.978)"/>
    </g>
  </g>
</svg>
