<svg xmlns="http://www.w3.org/2000/svg" viewBox="7249 517.363 59.637 59.637"><defs><style>.a{fill:#1189c6;}</style></defs><g transform="translate(7249 517.363)"><path class="a" d="M29.818,0A29.818,29.818,0,1,0,59.637,29.818,29.858,29.858,0,0,0,29.818,0Zm0,55.723a25.9,25.9,0,1,1,25.9-25.9,25.933,25.933,0,0,1-25.9,25.9Zm0,0"/><path class="a" d="M109.056,105.108,93.681,120.483l-6.225-6.206a1.95,1.95,0,0,0-2.758,2.758l7.6,7.6a1.964,1.964,0,0,0,1.379.578,1.888,1.888,0,0,0,1.379-.578h0l16.754-16.754a1.957,1.957,0,0,0-2.758-2.777Zm0,0" transform="translate(-68.447 -85.055)"/></g></svg>