<svg xmlns="http://www.w3.org/2000/svg" viewBox="2980.304 2164 16.134 19.284"><defs><style>.a{fill:#4e4e4e;}</style></defs><g transform="translate(2980.304 2162)"><path class="a" d="M15.448.614H10.694A.683.683,0,0,0,10.016,0h-3.9a.68.68,0,0,0-.677.614H.681A.678.678,0,0,0,0,1.292V2.584a.682.682,0,0,0,.681.681H15.452a.682.682,0,0,0,.681-.681V1.292a.684.684,0,0,0-.685-.677Zm0,0" transform="translate(0 2)"/><path class="a" d="M36.2,130.13a.682.682,0,0,0,.681.681H48.8a.682.682,0,0,0,.681-.681V116.1H36.2Zm0,0" transform="translate(-34.774 -109.527)"/></g></svg>