<svg xmlns="http://www.w3.org/2000/svg" viewBox="1788 807 27 27"><defs><style>.a{fill:#4e4e4e;}</style></defs><g transform="translate(1788 807)"><path class="a" d="M25.877,261.8a1.127,1.127,0,0,0-1.123,1.13v5.457H2.245V262.93a1.123,1.123,0,1,0-2.245,0v6.587a1.127,1.127,0,0,0,1.123,1.13H25.877A1.127,1.127,0,0,0,27,269.517V262.93a1.127,1.127,0,0,0-1.123-1.13Zm0,0" transform="translate(0 -243.647)"/><path class="a" d="M92.634,19.5a1.119,1.119,0,0,0,1.646,0l6.461-7a1.13,1.13,0,0,0-.062-1.6,1.109,1.109,0,0,0-1.584.062l-4.511,4.888V1.13a1.123,1.123,0,1,0-2.245,0V15.844l-4.511-4.888a1.124,1.124,0,0,0-1.591-.062,1.143,1.143,0,0,0-.062,1.6Zm0,0" transform="translate(-79.96)"/></g></svg>